<svg width="17" height="19" viewBox="0 0 17 19" fill="none" xmlns="http://www.w3.org/2000/svg">
<path d="M14.8218 1.88011L14.2396 17.0174C14.2193 17.5429 13.7711 17.9735 13.2449 17.9735H3.15452C2.62751 17.9735 2.1801 17.5433 2.15989 17.0174L1.57766 1.88011C1.57106 1.7059 1.42457 1.57041 1.25059 1.57701C1.07661 1.58361 0.940897 1.73032 0.947496 1.9043L1.52972 17.0416C1.56294 17.9062 2.28876 18.6042 3.1545 18.6042H13.2449C14.1095 18.6042 14.8365 17.9061 14.8697 17.0416L15.4519 1.9043C15.4585 1.73032 15.3228 1.58361 15.1488 1.57701C14.9748 1.57041 14.8283 1.70591 14.8217 1.88011H14.8218Z" fill="#6C6E76"/>
<path d="M7.88281 5.04515V15.7662C7.88281 15.9404 8.02402 16.0816 8.19823 16.0816C8.37243 16.0816 8.51364 15.9404 8.51364 15.7662V5.04515C8.51364 4.87095 8.37243 4.72974 8.19823 4.72974C8.02402 4.72974 7.88281 4.87095 7.88281 5.04515Z" fill="#6C6E76"/>
<path d="M4.4142 5.0547L4.72962 15.7758C4.73467 15.95 4.88006 16.0868 5.05405 16.0817C5.22825 16.0767 5.36506 15.9313 5.36 15.7573L5.04459 5.03623C5.03953 4.86225 4.89436 4.72522 4.72016 4.73049C4.54617 4.73555 4.40914 4.88072 4.4142 5.05492V5.0547Z" fill="#6C6E76"/>
<path d="M11.3507 5.0356L11.0353 15.7567C11.0302 15.9306 11.167 16.076 11.3412 16.0811C11.5152 16.0862 11.6606 15.9493 11.6657 15.7751L11.9811 5.05407C11.9862 4.87986 11.8491 4.7347 11.6751 4.72964C11.5009 4.72436 11.3558 4.86139 11.3507 5.03538V5.0356Z" fill="#6C6E76"/>
<path d="M0.315415 2.20715H16.0817C16.2559 2.20715 16.3971 2.06594 16.3971 1.89195C16.3971 1.71775 16.2559 1.57654 16.0817 1.57654H0.315415C0.141209 1.57654 0 1.71775 0 1.89195C0 2.06593 0.141209 2.20715 0.315415 2.20715Z" fill="#6C6E76"/>
<path d="M5.3394 2.00903L5.67681 1.16531C5.79074 0.880907 6.16026 0.6306 6.46557 0.6306H9.93427C10.2411 0.6306 10.6084 0.87937 10.723 1.16531L11.0604 2.00903L11.6459 1.77478L11.3085 0.931055C11.0982 0.405587 10.4991 0 9.93427 0H6.46557C5.90249 0 5.30089 0.407136 5.09132 0.931055L4.75391 1.77478L5.3394 2.00903Z" fill="#6C6E76"/>
</svg>
