<svg width="22" height="19" viewBox="0 0 22 19" fill="none" xmlns="http://www.w3.org/2000/svg">
<path d="M0.445328 12.9948C0.187761 13.023 -0.00547535 13.2435 0.000118405 13.5026V16.3072C0.000118405 17.2392 0.770922 18.0026 1.70315 18.0026H20.2969C21.2292 18.0026 21.9999 17.2392 21.9999 16.3072V13.5026C22.0019 13.3687 21.9501 13.2398 21.8561 13.1444C21.7621 13.049 21.6339 12.9955 21.5 12.9955C21.3662 12.9955 21.2379 13.049 21.1439 13.1444C21.0499 13.2398 20.9981 13.3687 21 13.5026V16.3072C21 16.7008 20.6941 17.0025 20.2969 17.0025H1.70313C1.30588 17.0025 1 16.7008 1 16.3072V13.5026C1.0021 13.3673 0.949257 13.2368 0.853521 13.1411C0.757958 13.0455 0.627516 12.9927 0.49219 12.9948C0.476495 12.9941 0.461024 12.9941 0.445328 12.9948Z" fill="#0094FF"/>
<path d="M11.3528 12.8587C11.2736 12.9407 11.1688 12.993 11.056 13.0073C10.905 13.0219 10.7554 12.9674 10.6495 12.8587L6.14954 8.35872C6.03898 8.26961 5.97167 8.13778 5.964 7.996C5.95632 7.8544 6.00934 7.71611 6.10978 7.61566C6.21006 7.51539 6.34834 7.46238 6.49012 7.46988C6.6319 7.47755 6.76373 7.54504 6.85267 7.6556L10.5012 11.304V0.507071C10.4993 0.373143 10.5511 0.244099 10.6451 0.148885C10.7391 0.0534964 10.8672 -4.00543e-05 11.0012 -4.00543e-05C11.1351 -4.00543e-05 11.2633 0.0534964 11.3573 0.148885C11.4513 0.244099 11.5031 0.373143 11.5011 0.507071V11.304L15.1497 7.6556C15.2386 7.54504 15.3704 7.47755 15.5122 7.46988C15.654 7.46238 15.7923 7.51539 15.8925 7.61566C15.993 7.71611 16.046 7.8544 16.0383 7.996C16.0307 8.13778 15.9633 8.26961 15.8528 8.35872L11.3528 12.8587Z" fill="#0094FF"/>
</svg>
