<svg width="20" height="19" viewBox="0 0 20 19" fill="none" xmlns="http://www.w3.org/2000/svg">
<path d="M17.6376 0.00527082C17.3181 -0.0236773 17.0065 0.0657842 16.7721 0.29423L7.90101 8.94019L7.88491 8.94786L7.89296 8.95554C7.76722 9.07255 7.69264 9.2138 7.60446 9.41625C7.51342 9.62534 7.4222 9.89111 7.34797 10.1895C7.1997 10.786 7.11724 11.5223 7.24388 12.2357L7.24406 12.2359C7.26266 12.3396 7.34601 12.4209 7.45225 12.439C8.18432 12.5625 8.93964 12.4819 9.55174 12.3375C9.85777 12.2654 10.1225 12.1762 10.3371 12.0877C10.5474 12.0006 10.697 11.9319 10.8179 11.8065C10.8202 11.8041 10.8236 11.8013 10.8259 11.7989L16.8521 5.92567V5.9255C16.9518 5.82627 16.95 5.66705 16.8482 5.5701C16.7464 5.47297 16.5831 5.47471 16.4835 5.57394L10.4573 11.4552H10.4575C10.4546 11.4578 10.4519 11.4604 10.4494 11.463C10.4555 11.4566 10.3205 11.5511 10.137 11.6271C9.95327 11.703 9.71235 11.7795 9.43173 11.8458C8.92861 11.9646 8.31884 12.0186 7.74095 11.9551C7.67566 11.3919 7.72324 10.7975 7.84504 10.3072C7.91301 10.0338 7.99958 9.79103 8.07738 9.6121C8.15536 9.43318 8.25231 9.30937 8.24569 9.3153V9.31513C8.24837 9.31269 8.25106 9.31007 8.25374 9.30745L15.8986 1.85658L18.1023 4.00448L17.2529 4.82461L17.2527 4.82443C17.1533 4.92366 17.1551 5.0827 17.2568 5.17983C17.3586 5.27679 17.5219 5.27504 17.6214 5.17582L19.6969 3.15297C20.1662 2.69627 20.0673 1.92842 19.5606 1.43476L18.535 0.435161C18.2817 0.188233 17.9569 0.0345949 17.6374 0.00564854L17.6376 0.00527082ZM17.4692 0.512904C17.6919 0.493547 17.9577 0.574984 18.1745 0.78634L19.2 1.78594C19.5469 2.12407 19.568 2.57571 19.3363 2.8012L18.4628 3.65254L16.259 1.50464L17.1326 0.653305C17.2195 0.568555 17.3354 0.524435 17.4692 0.512752L17.4692 0.512904ZM2.05137 3.50415C0.91934 3.50415 0 4.4003 0 5.50365V17.0005C0 18.1038 0.91934 19 2.05155 19H13.8476C14.9796 19 15.8991 18.104 15.8991 17.0005V9.25275H15.8989C15.8998 9.18578 15.8734 9.12144 15.8251 9.07365C15.7769 9.02605 15.7111 8.99919 15.6424 8.99919C15.5738 8.99919 15.5079 9.02604 15.4598 9.07365C15.4117 9.12144 15.3851 9.18578 15.386 9.25275V17.0005C15.386 17.8356 14.7041 18.5 13.8474 18.5H2.05136C1.19462 18.5 0.51278 17.8356 0.51278 17.0005V5.50365C0.51278 4.66852 1.19462 4.0041 2.05136 4.0041H11.0268C11.0953 4.00497 11.1615 3.97916 11.2105 3.93208C11.2593 3.88517 11.2869 3.82099 11.2869 3.7542C11.2869 3.68724 11.2593 3.62306 11.2105 3.57615C11.1615 3.52907 11.0953 3.50326 11.0268 3.50413L2.05137 3.50415Z" fill="#6C6E76"/>
</svg>
