<svg width="22" height="22" viewBox="0 0 22 22" fill="none" xmlns="http://www.w3.org/2000/svg">
<path d="M8.88603 17.7717C6.52929 17.7717 4.26926 16.8358 2.6026 15.1691C0.936294 13.5028 0 11.2424 0 8.88603C0 6.52929 0.936294 4.26891 2.6026 2.6026C4.26926 0.936295 6.52929 0 8.88603 0C11.2428 0 13.5028 0.936295 15.1695 2.6026C16.8358 4.26891 17.7721 6.52929 17.7721 8.88603C17.7721 11.2424 16.8358 13.5028 15.1695 15.1691C13.5028 16.8358 11.2428 17.7717 8.88603 17.7717ZM8.88603 1.97432C7.05302 1.97432 5.29512 2.70263 3.99889 3.9988C2.70275 5.29495 1.97476 7.05293 1.97476 8.88594C1.97476 10.719 2.70273 12.4769 3.99889 13.7731C5.29504 15.0689 7.05302 15.7972 8.88603 15.7972C10.719 15.7972 12.4769 15.0689 13.7732 13.7731C15.0693 12.4769 15.7973 10.719 15.7973 8.88594C15.7973 7.05293 15.0693 5.29503 13.7732 3.9988C12.477 2.70266 10.719 1.97432 8.88603 1.97432Z" fill="#6C6E76"/>
<path d="M20.2048 21.721C19.9434 21.72 19.6931 21.6153 19.5088 21.4297L13.5353 15.4562L13.5356 15.4565C13.1496 15.0705 13.1496 14.4451 13.5356 14.0594C13.9213 13.6734 14.5467 13.6734 14.9327 14.0594L20.9063 20.033L20.9059 20.0326C21.1907 20.3153 21.2764 20.742 21.1225 21.1125C20.9686 21.4827 20.606 21.7234 20.2048 21.721L20.2048 21.721Z" fill="#6C6E76"/>
</svg>
