<svg width="111" height="30" viewBox="0 0 111 30" fill="none" xmlns="http://www.w3.org/2000/svg">
<path d="M10.7103 13.3886L9.22505 14.9122C7.99284 13.7217 6.78814 13.1265 5.61094 13.1265C4.86282 13.1265 4.21921 13.3722 3.68012 13.8637C3.15203 14.3552 2.88799 14.9286 2.88799 15.5839C2.88799 16.1628 3.10802 16.7144 3.5481 17.2386C3.98817 17.7738 4.91233 18.4019 6.32056 19.1227C8.03685 20.0074 9.20305 20.8593 9.81915 21.6785C10.4243 22.5086 10.7268 23.4424 10.7268 24.48C10.7268 25.9436 10.2097 27.1833 9.17554 28.199C8.14137 29.2148 6.84865 29.7227 5.29739 29.7227C4.26322 29.7227 3.27305 29.4988 2.32689 29.0509C1.39173 28.6031 0.616103 27.986 0 27.1996L1.45224 25.5613C2.62944 26.8829 3.87815 27.5437 5.19837 27.5437C6.12253 27.5437 6.90916 27.2488 7.55827 26.659C8.20738 26.0692 8.53193 25.3756 8.53193 24.5783C8.53193 23.923 8.3174 23.3387 7.88832 22.8253C7.45925 22.3229 6.49109 21.6894 4.98384 20.9249C3.36657 20.0948 2.26638 19.2756 1.68328 18.4674C1.10018 17.6592 0.808636 16.7362 0.808636 15.6986C0.808636 14.3443 1.27071 13.2193 2.19487 12.3237C3.13003 11.4281 4.30722 10.9803 5.72646 10.9803C7.37674 10.9803 9.03802 11.783 10.7103 13.3886Z" fill="#0F293C"/>
<path d="M32.2464 15.1416L30.4146 16.272C28.8303 14.1859 26.6685 13.1428 23.929 13.1428C21.7397 13.1428 19.9188 13.8419 18.4666 15.2399C17.0254 16.6379 16.3047 18.3363 16.3047 20.3351C16.3047 21.6348 16.6348 22.8581 17.2949 24.0049C17.966 25.1517 18.8792 26.0419 20.0344 26.6754C21.2006 27.3089 22.5043 27.6256 23.9455 27.6256C26.586 27.6256 28.7423 26.5825 30.4146 24.4964L32.2464 25.6924C31.3883 26.9703 30.2331 27.9642 28.7808 28.6741C27.3396 29.3731 25.6948 29.7227 23.8465 29.7227C21.008 29.7227 18.6536 28.827 16.7833 27.0358C14.913 25.2446 13.9778 23.0656 13.9778 20.4989C13.9778 18.7732 14.4124 17.1731 15.2816 15.6986C16.1617 14.2132 17.3664 13.0555 18.8957 12.2254C20.4249 11.3953 22.1357 10.9803 24.028 10.9803C25.2162 10.9803 26.3604 11.1605 27.4606 11.5209C28.5718 11.8813 29.5125 12.351 30.2826 12.9299C31.0527 13.5087 31.7073 14.246 32.2464 15.1416Z" fill="#0F293C"/>
<path d="M35.8275 11.439H38.1874V14.0439C38.8915 13.0172 39.6342 12.2527 40.4153 11.7503C41.1964 11.2369 42.0106 10.9803 42.8577 10.9803C43.4958 10.9803 44.1779 11.1823 44.904 11.5864L43.6993 13.5197C43.2153 13.3121 42.8082 13.2084 42.4781 13.2084C41.708 13.2084 40.9654 13.5251 40.2503 14.1586C39.5351 14.7812 38.9905 15.7532 38.6165 17.0748C38.3304 18.0906 38.1874 20.1439 38.1874 23.2349V29.2639H35.8275V11.439Z" fill="#0F293C"/>
<path d="M47.4596 0H53.0906V18.939C53.0906 20.5703 53.2309 21.7241 53.5114 22.4005C53.8053 23.0769 54.2796 23.6207 54.9342 24.0318C55.6022 24.4297 56.4037 24.6286 57.3389 24.6286C58.3275 24.6286 59.1758 24.4032 59.8838 23.9523C60.6052 23.5013 61.0995 22.931 61.3667 22.2414C61.6473 21.5385 61.7876 20.2056 61.7876 18.2427V0H67.4185V17.447C67.4185 20.3912 67.2515 22.4337 66.9176 23.5743C66.5836 24.7149 65.9423 25.8157 64.9938 26.8767C64.0587 27.9377 62.9765 28.7268 61.7475 29.244C60.5184 29.748 59.089 30 57.4591 30C55.3216 30 53.458 29.5159 51.8682 28.5477C50.2918 27.5663 49.1629 26.3462 48.4816 24.8873C47.8003 23.4151 47.4596 20.935 47.4596 17.447V0Z" fill="#0094FF"/>
<path d="M73.3077 29.2639V4.55804H75.6016V14.5027C76.5697 13.3231 77.6534 12.4438 78.8526 11.865C80.0518 11.2752 81.3665 10.9803 82.7968 10.9803C85.3382 10.9803 87.5056 11.8977 89.2989 13.7326C91.1032 15.5566 92.0053 17.7738 92.0053 20.3842C92.0053 22.9619 91.0977 25.1627 89.2824 26.9867C87.467 28.8107 85.2832 29.7227 82.7308 29.7227C81.2675 29.7227 79.9418 29.4114 78.7536 28.7888C77.5654 28.1663 76.5147 27.2324 75.6016 25.9873V29.2639H73.3077ZM82.5492 27.5109C83.8364 27.5109 85.0246 27.1996 86.1138 26.5771C87.203 25.9436 88.0666 25.0589 88.7048 23.923C89.3539 22.7871 89.6784 21.5857 89.6784 20.3187C89.6784 19.0517 89.3539 17.8448 88.7048 16.698C88.0556 15.5512 87.181 14.661 86.0808 14.0275C84.9916 13.3831 83.8254 13.0609 82.5822 13.0609C81.317 13.0609 80.1123 13.3831 78.9681 14.0275C77.8349 14.661 76.9603 15.5184 76.3442 16.5997C75.7391 17.681 75.4365 18.8988 75.4365 20.2532C75.4365 22.3174 76.1186 24.0431 77.4829 25.4303C78.8581 26.8174 80.5469 27.5109 82.5492 27.5109Z" fill="#0F293C"/>
<path d="M97.0387 4.09931C97.5667 4.09931 98.0178 4.28499 98.3919 4.65634C98.7659 5.0277 98.953 5.4755 98.953 5.99977C98.953 6.51311 98.7659 6.95545 98.3919 7.32681C98.0178 7.69816 97.5667 7.88384 97.0387 7.88384C96.5216 7.88384 96.076 7.69816 95.7019 7.32681C95.3279 6.95545 95.1408 6.51311 95.1408 5.99977C95.1408 5.4755 95.3279 5.0277 95.7019 4.65634C96.076 4.28499 96.5216 4.09931 97.0387 4.09931ZM95.8835 11.439H98.2104V29.2639H95.8835V11.439Z" fill="#0F293C"/>
<path d="M105.009 4.82017H107.336V11.439H111V13.405H107.336V29.2639H105.009V13.405H101.857V11.439H105.009V4.82017Z" fill="#0F293C"/>
</svg>
