<svg width="20" height="20" viewBox="0 0 20 20" fill="none" xmlns="http://www.w3.org/2000/svg">
<path d="M10 20C4.46667 20 0 15.5333 0 10C0 4.46667 4.46667 0 10 0C15.5333 0 20 4.46667 20 10C20 15.5333 15.5333 20 10 20ZM10 1.33333C5.2 1.33333 1.33333 5.2 1.33333 10C1.33333 14.8 5.2 18.6667 10 18.6667C14.8 18.6667 18.6667 14.8 18.6667 10C18.6667 5.2 14.8 1.33333 10 1.33333Z" fill="#6C6E76"/>
<path d="M5.9987 14.6667C5.5987 14.6667 5.33203 14.4 5.33203 14C5.33203 13.8 5.3987 13.6667 5.53203 13.5334L13.532 5.53338C13.7987 5.26671 14.2654 5.33338 14.4654 5.60004C14.6654 5.86671 14.6654 6.20004 14.4654 6.46671L6.46536 14.4667C6.33203 14.6 6.1987 14.6667 5.9987 14.6667Z" fill="#6C6E76"/>
<path d="M14.0075 14.6666C13.8075 14.6666 13.6742 14.6 13.5409 14.4666L5.54085 6.46663C5.27419 6.19997 5.34085 5.79997 5.60752 5.5333C5.87419 5.3333 6.20752 5.3333 6.47419 5.5333L14.4742 13.5333C14.7409 13.8 14.7409 14.2 14.4742 14.4666C14.3409 14.6 14.2075 14.6666 14.0075 14.6666Z" fill="#6C6E76"/>
</svg>
