<svg width="88" height="88" viewBox="0 0 88 88" fill="none" xmlns="http://www.w3.org/2000/svg">
<circle cx="44" cy="44" r="44" fill="#0094FF" fill-opacity="0.07"/>
<path d="M57.5397 22.0001C57.3012 22.0017 57.0884 22.15 57.0046 22.3733C56.9208 22.5966 56.9837 22.8483 57.1625 23.0058L67.0572 32.3618L57.1625 41.6996C57.0495 41.8043 56.9829 41.9494 56.9773 42.1033C56.9717 42.2572 57.0278 42.4067 57.1329 42.519C57.2383 42.6316 57.3838 42.6973 57.5377 42.7017C57.6916 42.7065 57.8407 42.6496 57.9526 42.5438L68.2961 32.7746C68.4135 32.666 68.4805 32.5129 68.4805 32.353C68.4805 32.1926 68.4135 32.0395 68.2961 31.9309L57.9526 22.1621C57.8419 22.0551 57.6932 21.9969 57.5397 22.0001ZM19.5232 31.7869C19.2058 31.817 18.9729 32.0984 19.0025 32.4155C19.0322 32.7329 19.3136 32.9662 19.6311 32.9365H63.8783C64.0322 32.9385 64.1805 32.8788 64.2899 32.771C64.3993 32.6632 64.4611 32.5157 64.4611 32.3617C64.4611 32.2078 64.3993 32.0603 64.2899 31.9525C64.1805 31.8447 64.0322 31.7849 63.8783 31.7869H19.6311C19.595 31.7837 19.5589 31.7837 19.5232 31.7869ZM29.9201 44.9852C29.7914 44.9992 29.6712 45.0561 29.579 45.1471L19.2355 54.9159C19.118 55.0245 19.0511 55.1776 19.0511 55.3379C19.0511 55.4979 19.118 55.651 19.2355 55.7596L29.579 65.5288C29.8123 65.7444 30.1762 65.7312 30.3935 65.4991C30.6107 65.2674 30.5999 64.9035 30.369 64.6846L21.0852 55.9216H67.8998C68.0537 55.9236 68.2021 55.8639 68.3115 55.756C68.4209 55.6482 68.4826 55.5007 68.4826 55.3468C68.4826 55.1929 68.4209 55.0454 68.3115 54.9375C68.2021 54.8297 68.0537 54.77 67.8998 54.772H21.0852L30.369 45.9909C30.5618 45.8253 30.6228 45.5528 30.5193 45.3211C30.4155 45.089 30.1722 44.9527 29.9201 44.9852Z" fill="url(#paint0_linear_341_793)"/>
<defs>
<linearGradient id="paint0_linear_341_793" x1="43.7413" y1="22" x2="43.7413" y2="141.458" gradientUnits="userSpaceOnUse">
<stop stop-color="#0096FF"/>
<stop offset="1" stop-color="#0605FF"/>
</linearGradient>
</defs>
</svg>
