<svg width="88" height="88" viewBox="0 0 88 88" fill="none" xmlns="http://www.w3.org/2000/svg">
<circle cx="44" cy="44" r="44" fill="#0094FF" fill-opacity="0.07"/>
<path d="M56.7774 43.5015C53.1643 43.5015 50.2182 45.9775 50.2182 49.019C50.2182 52.0604 53.1588 54.542 56.7774 54.542C60.396 54.542 63.337 52.0604 63.337 49.019V25.9236C63.3378 24.7174 62.7834 23.5784 61.8339 22.8344C60.8844 22.0905 59.6458 21.8252 58.4748 22.1147L39.9897 26.6746V26.6742C39.1386 26.8848 38.383 27.3744 37.8426 28.0648C37.3026 28.7552 37.0091 29.6066 37.0099 30.4834V56.7157C35.6474 55.1341 33.6465 54.2478 31.5596 54.3013C27.9242 54.3013 25 56.7551 25 59.7966C25 62.8382 27.9242 65.3197 31.5596 65.3197C35.195 65.3197 38.1188 62.8436 38.1188 59.8021V38.1972L62.2055 32.2541V45.9389C60.8524 44.3549 58.8605 43.4609 56.7774 43.5023L56.7774 43.5015ZM31.5704 64.1992C28.5735 64.1992 26.1314 62.2275 26.1314 59.8019C26.1314 57.3762 28.5571 55.4214 31.5595 55.4214C34.562 55.4214 36.9985 57.393 36.9985 59.8242C36.9985 62.2553 34.5561 64.1988 31.5595 64.1988L31.5704 64.1992ZM38.1132 37.0427V30.4835C38.1129 29.8563 38.3227 29.2468 38.7099 28.7533C39.0967 28.2598 39.6383 27.9101 40.2474 27.7608L58.7325 23.201V23.2013C59.5679 22.9946 60.4521 23.1838 61.1301 23.7144C61.8084 24.2446 62.2046 25.0573 62.2054 25.9181V31.0996L38.1132 37.0427ZM56.7774 53.4222C53.7805 53.4222 51.3384 51.4506 51.3384 49.0194C51.3384 46.5882 53.775 44.6221 56.7774 44.6221C59.7798 44.6221 62.2164 46.5937 62.2164 49.0194C62.2168 51.4447 59.7798 53.4222 56.7774 53.4222Z" fill="url(#paint0_linear_341_794)"/>
<defs>
<linearGradient id="paint0_linear_341_794" x1="44.1685" y1="22" x2="44.1685" y2="140.466" gradientUnits="userSpaceOnUse">
<stop stop-color="#0096FF"/>
<stop offset="1" stop-color="#0605FF"/>
</linearGradient>
</defs>
</svg>
