<svg width="88" height="88" viewBox="0 0 88 88" fill="none" xmlns="http://www.w3.org/2000/svg">
<circle cx="44" cy="44" r="44" fill="#0094FF" fill-opacity="0.07"/>
<path d="M26.7628 25.0004H55.1035C55.5706 25.0004 56.0185 25.186 56.3491 25.5166L61.4838 30.6513C61.8144 30.9819 62 31.4299 62 31.8969V60.2377C62 61.211 61.211 62 60.2377 62H26.7623C25.789 62 25 61.211 25 60.2377V26.7623C25 25.789 25.789 25 26.7623 25L26.7628 25.0004ZM33.3697 26.7628H27.2028C26.96 26.7628 26.7628 26.96 26.7628 27.2028V59.7972C26.7628 60.0399 26.96 60.2371 27.2028 60.2371H59.7972C60.0399 60.2371 60.2372 60.0399 60.2372 59.7972V32.0793C60.2372 31.9626 60.1911 31.8507 60.1081 31.7678L55.2322 26.8918C55.1492 26.8089 55.0374 26.7628 54.9206 26.7628H53.6302C53.3875 26.7628 53.1902 26.96 53.1902 27.2028V35.5721C53.1902 36.5448 52.4012 37.3338 51.4279 37.3338H35.5711C34.5978 37.3338 33.8088 36.5448 33.8088 35.5721V27.2028C33.8088 26.96 33.6116 26.7628 33.3688 26.7628L33.3697 26.7628ZM36.0121 35.5721H50.9883C51.2311 35.5721 51.4283 35.3748 51.4283 35.1315V27.2028C51.4283 26.9601 51.2311 26.7628 50.9883 26.7628H36.0121C35.7693 26.7628 35.5721 26.9601 35.5721 27.2028V35.1315C35.5721 35.3748 35.7693 35.5721 36.0121 35.5721Z" fill="url(#paint0_linear_341_792)"/>
<defs>
<linearGradient id="paint0_linear_341_792" x1="43.5" y1="25" x2="43.5" y2="126.184" gradientUnits="userSpaceOnUse">
<stop stop-color="#0096FF"/>
<stop offset="1" stop-color="#0605FF"/>
</linearGradient>
</defs>
</svg>
