<svg width="16" height="16" viewBox="0 0 16 16" fill="none" xmlns="http://www.w3.org/2000/svg">
<path d="M4 3H5.9749V9.313C5.9749 9.85676 6.0241 10.2414 6.12249 10.4668C6.22557 10.6923 6.3919 10.8736 6.62149 11.0106C6.85576 11.1432 7.13688 11.2095 7.46486 11.2095C7.81158 11.2095 8.1091 11.1344 8.35743 10.9841C8.61044 10.8338 8.7838 10.6437 8.87751 10.4138C8.9759 10.1795 9.0251 9.73519 9.0251 9.0809V3H11V8.81565C11 9.79708 10.9414 10.4779 10.8243 10.8581C10.7072 11.2383 10.4823 11.6052 10.1496 11.9589C9.82162 12.3126 9.4421 12.5756 9.01104 12.748C8.57999 12.916 8.07865 13 7.50703 13C6.75736 13 6.10375 12.8386 5.54618 12.5159C4.99331 12.1888 4.59739 11.7821 4.35843 11.2958C4.11948 10.805 4 9.97834 4 8.81565V3Z" fill="#0094FF"/>
</svg>
