<svg width="88" height="88" viewBox="0 0 88 88" fill="none" xmlns="http://www.w3.org/2000/svg">
<circle cx="44" cy="44" r="44" fill="#0094FF" fill-opacity="0.07"/>
<path d="M38.2918 20.0004C28.1958 20.0004 20 28.1961 20 38.2921C20 48.3891 28.1958 56.5849 38.2918 56.5849C43.1222 56.5849 47.5066 54.6947 50.7772 51.6323L67.0293 67.8325C67.1355 67.9388 67.2799 67.9983 67.4302 67.9983C67.5808 67.9983 67.7248 67.9388 67.8315 67.8325C67.9378 67.7258 67.9973 67.5818 67.9973 67.4312C67.9973 67.281 67.9378 67.1365 67.8315 67.0303L51.5795 50.8649C54.6825 47.5868 56.5843 43.1584 56.5843 38.2918C56.5843 28.1958 48.3885 20 38.2915 20L38.2918 20.0004ZM38.2918 21.1163C47.7856 21.1163 55.4685 28.7991 55.4685 38.293C55.4685 47.7869 47.7861 55.4698 38.2918 55.4698C28.7983 55.4698 21.115 47.7874 21.115 38.293C21.115 28.7996 28.7978 21.1163 38.2918 21.1163ZM38.1875 25.0227C37.8792 25.0515 37.6526 25.3247 37.6814 25.633C37.7106 25.9409 37.9839 26.1674 38.2918 26.1386C45.0116 26.1386 50.4464 31.5727 50.4464 38.2923C50.4445 38.4417 50.5021 38.5857 50.6072 38.692C50.7119 38.7987 50.8551 38.8582 51.0046 38.8582C51.1537 38.8582 51.2969 38.7987 51.402 38.692C51.5067 38.5857 51.5647 38.4417 51.5624 38.2923C51.5624 30.9696 45.6152 25.0226 38.2917 25.0226C38.2746 25.0214 38.2571 25.0214 38.2395 25.0226C38.222 25.0218 38.2045 25.0218 38.1874 25.0226L38.1875 25.0227Z" fill="url(#paint0_linear_341_790)"/>
<defs>
<linearGradient id="paint0_linear_341_790" x1="43.9987" y1="20" x2="43.9987" y2="151.261" gradientUnits="userSpaceOnUse">
<stop stop-color="#0096FF"/>
<stop offset="1" stop-color="#0605FF"/>
</linearGradient>
</defs>
</svg>
