<svg width="88" height="88" viewBox="0 0 88 88" fill="none" xmlns="http://www.w3.org/2000/svg">
<circle cx="44" cy="44" r="44" fill="#0096FF"/>
<path d="M22 29.6001C22 29.2687 22.2652 29 22.5923 29H39.8191C40.1004 27.2991 41.5609 26 43.3161 26C45.0715 26 46.5319 27.2991 46.8131 29H66.4073C66.7344 29 66.9996 29.2687 66.9996 29.6001C66.9996 29.9316 66.7344 30.2003 66.4073 30.2003H46.8131C46.5318 31.9012 45.0714 33.2003 43.3161 33.2003C41.5604 33.2003 40.1 31.9012 39.8191 30.2003H22.5923C22.2652 30.2003 22 29.9316 22 29.6001ZM22 44C22 43.6685 22.2652 43.3998 22.5923 43.3998H51.6611C51.9424 41.699 53.4028 40.3999 55.1581 40.3999C56.9134 40.3999 58.3738 41.699 58.6551 43.3998H66.4077C66.7348 43.3998 67 43.6685 67 44C67 44.3315 66.7348 44.6002 66.4077 44.6002H58.6551C58.3738 46.301 56.9133 47.6001 55.1581 47.6001C53.4024 47.6001 51.9419 46.301 51.6611 44.6002H22.5923C22.2652 44.6002 22 44.3315 22 44ZM22 58.3999C22 58.0684 22.2652 57.7997 22.5923 57.7997H27.9768C28.258 56.0988 29.7185 54.7997 31.4737 54.7997C33.2294 54.7997 34.6895 56.0988 34.9707 57.7997H66.4069C66.734 57.7997 66.9992 58.0684 66.9992 58.3999C66.9992 58.7313 66.734 59 66.4069 59H34.9707C34.6894 60.7009 33.229 62 31.4737 62C29.7181 62 28.258 60.7009 27.9768 59H22.5923C22.2652 59 22 58.7313 22 58.3999ZM29.1051 58.3999C29.1051 59.7325 30.1583 60.7996 31.4733 60.7996C32.7882 60.7996 33.8414 59.732 33.8414 58.3999C33.8414 57.0672 32.7882 56.0001 31.4733 56.0001C30.1583 56.0001 29.1051 57.0673 29.1051 58.3999ZM40.947 29.6001C40.947 30.9328 42.0002 31.9999 43.3152 31.9999C44.6302 31.9999 45.6834 30.9327 45.6834 29.6001C45.6834 28.2676 44.6298 27.2004 43.3152 27.2004C42.0001 27.2004 40.947 28.2676 40.947 29.6001ZM52.789 44C52.789 45.3326 53.8422 46.3998 55.1572 46.3998C56.4722 46.3998 57.5254 45.3321 57.5254 44C57.5254 42.6674 56.4718 41.6002 55.1572 41.6002C53.8421 41.6002 52.789 42.6675 52.789 44Z" fill="white"/>
</svg>
