<svg width="30" height="29" viewBox="0 0 30 29" fill="none" xmlns="http://www.w3.org/2000/svg">
<path d="M14.6458 0C10.7615 0 7.03629 1.50133 4.28967 4.17373C1.54304 6.84612 0 10.4707 0 14.25C0 18.0293 1.54304 21.6539 4.28967 24.3263C7.03629 26.9987 10.7615 28.5 14.6458 28.5C18.5301 28.5 22.2554 26.9987 25.002 24.3263C27.7486 21.6539 29.2917 18.0293 29.2917 14.25C29.2917 10.4707 27.7486 6.84612 25.002 4.17373C22.2554 1.50133 18.5301 0 14.6458 0Z" fill="white"/>
<path d="M16.6285 18.0268H20.4187L21.0138 14.2806H16.6277V12.2331C16.6277 10.6768 17.1504 9.29684 18.6466 9.29684H21.0508V6.02759C20.6284 5.97209 19.735 5.85059 18.0469 5.85059C14.5218 5.85059 12.4552 7.66184 12.4552 11.7883V14.2806H8.83154V18.0268H12.4552V28.3236C13.1729 28.4286 13.8998 28.4998 14.6459 28.4998C15.3204 28.4998 15.9787 28.4398 16.6285 28.3543V18.0268Z" fill="#1C1C1C"/>
</svg>
