<svg width="28" height="28" viewBox="0 0 28 28" fill="none" xmlns="http://www.w3.org/2000/svg">
<path d="M18.48 14C18.48 14.8861 18.2173 15.7522 17.725 16.489C17.2327 17.2257 16.533 17.7999 15.7144 18.139C14.8958 18.4781 13.995 18.5668 13.126 18.3939C12.257 18.2211 11.4587 17.7944 10.8322 17.1678C10.2056 16.5413 9.77894 15.743 9.60608 14.874C9.43322 14.005 9.52194 13.1042 9.86102 12.2856C10.2001 11.467 10.7743 10.7673 11.511 10.275C12.2478 9.78275 13.1139 9.52 14 9.52C15.1878 9.52136 16.3265 9.99379 17.1663 10.8337C18.0062 11.6735 18.4786 12.8122 18.48 14ZM28 7.84V20.16C27.9976 22.2386 27.1709 24.2313 25.7011 25.7011C24.2313 27.1709 22.2386 27.9976 20.16 28H7.84C5.76143 27.9976 3.76866 27.1709 2.29888 25.7011C0.829108 24.2313 0.00235407 22.2386 0 20.16V7.84C0.00235407 5.76143 0.829108 3.76866 2.29888 2.29888C3.76866 0.829108 5.76143 0.00235407 7.84 0H20.16C22.2386 0.00235407 24.2313 0.829108 25.7011 2.29888C27.1709 3.76866 27.9976 5.76143 28 7.84ZM20.72 14C20.72 12.6709 20.3259 11.3717 19.5875 10.2666C18.8491 9.16147 17.7996 8.30015 16.5716 7.79153C15.3437 7.28291 13.9925 7.14983 12.689 7.40912C11.3854 7.66842 10.1881 8.30843 9.24824 9.24824C8.30843 10.1881 7.66842 11.3854 7.40912 12.689C7.14983 13.9925 7.28291 15.3437 7.79153 16.5716C8.30015 17.7996 9.16147 18.8491 10.2666 19.5875C11.3717 20.3259 12.6709 20.72 14 20.72C15.7816 20.718 17.4897 20.0093 18.7495 18.7495C20.0093 17.4897 20.718 15.7816 20.72 14ZM22.96 6.72C22.96 6.38773 22.8615 6.06292 22.6769 5.78664C22.4923 5.51037 22.2299 5.29504 21.9229 5.16788C21.6159 5.04073 21.2781 5.00746 20.9522 5.07228C20.6264 5.1371 20.327 5.29711 20.0921 5.53206C19.8571 5.76701 19.6971 6.06636 19.6323 6.39225C19.5675 6.71814 19.6007 7.05593 19.7279 7.36291C19.855 7.66989 20.0704 7.93227 20.3466 8.11687C20.6229 8.30147 20.9477 8.4 21.28 8.4C21.7256 8.4 22.1529 8.223 22.4679 7.90794C22.783 7.59288 22.96 7.16556 22.96 6.72Z" fill="white"/>
</svg>
