<svg width="32" height="26" viewBox="0 0 32 26" fill="none" xmlns="http://www.w3.org/2000/svg">
<path d="M32 3.07428C30.8241 3.59966 29.5593 3.95021 28.2252 4.11607C29.5815 3.30379 30.625 2.00828 31.1147 0.477862C29.8455 1.22828 28.4394 1.77966 26.9435 2.07014C25.749 0.792552 24.0451 0 22.1573 0C18.5309 0 15.5916 2.9389 15.5916 6.56276C15.5916 7.07559 15.6511 7.57497 15.7631 8.06C10.3076 7.78386 5.46888 5.16772 2.23181 1.19779C1.66297 2.16786 1.343 3.30379 1.343 4.50248C1.343 6.78062 2.49935 8.78621 4.26276 9.96786C3.1864 9.93469 2.17315 9.63255 1.28611 9.14841C1.28611 9.16814 1.28611 9.19773 1.28611 9.22552C1.28611 12.4092 3.54993 15.0603 6.55057 15.6637C6.00217 15.8152 5.42266 15.8994 4.82538 15.8994C4.40141 15.8994 3.98811 15.851 3.58815 15.7784C4.42363 18.3802 6.84743 20.2818 9.71919 20.3383C7.47227 22.0955 4.64228 23.1481 1.5652 23.1481C1.03369 23.1481 0.513735 23.1176 0 23.0548C2.90731 24.9116 6.35947 26 10.0649 26C22.1395 26 28.7452 15.9981 28.7452 7.32124C28.7452 7.03703 28.7363 6.75372 28.7229 6.474C30.0117 5.55593 31.1227 4.39759 32 3.07428Z" fill="white"/>
</svg>
