<svg width="38" height="27" viewBox="0 0 38 27" fill="none" xmlns="http://www.w3.org/2000/svg">
<path d="M36.2572 22.4082C35.8872 24.2981 34.3148 25.738 32.3725 26.008C29.3202 26.4579 24.2331 26.9979 18.4985 26.9979C12.8565 26.9979 7.76939 26.4579 4.62464 26.008C2.68229 25.738 1.10991 24.2981 0.739942 22.4082C0.369971 20.3384 0 17.2786 0 13.4989C0 9.71924 0.369971 6.65948 0.739942 4.58964C1.10991 2.69979 2.68229 1.2599 4.62464 0.989923C7.6769 0.539958 12.764 0 18.4985 0C24.2331 0 29.2277 0.539958 32.3725 0.989923C34.3148 1.2599 35.8872 2.69979 36.2572 4.58964C36.6271 6.65948 37.0896 9.71924 37.0896 13.4989C36.9971 17.2786 36.6271 20.3384 36.2572 22.4082Z" fill="white"/>
<path d="M14.7988 19.7985V7.19946L25.898 13.499L14.7988 19.7985Z" fill="#1C1C1C"/>
</svg>
