<svg width="88" height="88" viewBox="0 0 88 88" fill="none" xmlns="http://www.w3.org/2000/svg">
<circle cx="44" cy="44" r="44" fill="#0094FF" fill-opacity="0.07"/>
<path d="M24.0147 52.7592C23.2442 52.7592 22.6665 52.1331 22.6665 51.411V37.2554C22.6665 36.4849 23.2925 35.9072 24.0147 35.9072C24.7367 35.9072 25.3628 36.5333 25.3628 37.2554V51.3629C25.3628 52.1333 24.7851 52.7593 24.0147 52.7593V52.7592Z" fill="url(#paint0_linear_341_791)"/>
<path d="M64.6519 52.7592C63.8814 52.7592 63.3037 52.1331 63.3037 51.411V37.2554C63.3037 36.4849 63.9297 35.9072 64.6519 35.9072C65.4223 35.9072 66 36.5333 66 37.2554V51.3629C66 52.1333 65.374 52.7593 64.6519 52.7593V52.7592Z" fill="url(#paint1_linear_341_791)"/>
<path d="M32.6817 60.6555C31.9112 60.6555 31.3335 60.0295 31.3335 59.3073V29.359C31.3335 28.5886 31.9595 28.0109 32.6817 28.0109C33.4037 28.0109 34.0298 28.6369 34.0298 29.359V59.3073C34.0298 60.0778 33.4038 60.6555 32.6817 60.6555Z" fill="url(#paint2_linear_341_791)"/>
<path d="M55.9849 60.6555C55.2144 60.6555 54.6367 60.0295 54.6367 59.3073V29.359C54.6367 28.5886 55.2628 28.0109 55.9849 28.0109C56.707 28.0109 57.333 28.6369 57.333 29.359V59.3073C57.333 60.0778 56.7554 60.6555 55.9849 60.6555Z" fill="url(#paint3_linear_341_791)"/>
<path d="M44.333 66C43.5626 66 42.9849 65.3739 42.9849 64.6518V24.0145C42.9849 23.2924 43.5625 22.6664 44.333 22.6664C45.1035 22.6664 45.6812 23.2924 45.6812 24.0145V64.6518C45.6812 65.3739 45.1035 66 44.333 66Z" fill="url(#paint4_linear_341_791)"/>
<defs>
<linearGradient id="paint0_linear_341_791" x1="24.0147" y1="35.9072" x2="24.0147" y2="81.9926" gradientUnits="userSpaceOnUse">
<stop stop-color="#0096FF"/>
<stop offset="1" stop-color="#0605FF"/>
</linearGradient>
<linearGradient id="paint1_linear_341_791" x1="64.6519" y1="35.9072" x2="64.6519" y2="81.9926" gradientUnits="userSpaceOnUse">
<stop stop-color="#0096FF"/>
<stop offset="1" stop-color="#0605FF"/>
</linearGradient>
<linearGradient id="paint2_linear_341_791" x1="32.6817" y1="28.0109" x2="32.6817" y2="117.284" gradientUnits="userSpaceOnUse">
<stop stop-color="#0096FF"/>
<stop offset="1" stop-color="#0605FF"/>
</linearGradient>
<linearGradient id="paint3_linear_341_791" x1="55.9849" y1="28.0109" x2="55.9849" y2="117.284" gradientUnits="userSpaceOnUse">
<stop stop-color="#0096FF"/>
<stop offset="1" stop-color="#0605FF"/>
</linearGradient>
<linearGradient id="paint4_linear_341_791" x1="44.333" y1="22.6664" x2="44.333" y2="141.17" gradientUnits="userSpaceOnUse">
<stop stop-color="#0096FF"/>
<stop offset="1" stop-color="#0605FF"/>
</linearGradient>
</defs>
</svg>
