<svg width="53" height="38" viewBox="0 0 53 38" fill="none" xmlns="http://www.w3.org/2000/svg">
<path d="M49.9678 23.215C49.3701 22.7549 49.2193 21.9184 49.617 21.278C50.9877 19.0769 51.7128 16.5389 51.7128 13.9391C51.7128 6.25282 45.4427 0 37.7361 0C34.4602 0 31.2741 1.15532 28.7643 3.25326C28.2402 3.6912 27.4826 3.71127 26.9363 3.30324C25.5779 2.28848 23.9701 1.75139 22.2871 1.75139C18.4718 1.75139 15.2505 4.47691 14.6286 8.23283C14.5103 8.94894 13.8752 9.47908 13.1576 9.4623C13.1059 9.46189 13.0541 9.45861 13.0027 9.45452C8.81856 9.45533 5.38406 12.881 5.38406 17.0916C5.38406 18.1334 5.59233 19.1461 6.00228 20.099C6.16248 20.4714 6.16125 20.893 5.9994 21.2637C5.83796 21.6348 5.52947 21.9224 5.14744 22.0597C2.06827 23.1637 0 26.092 0 29.3469C0 33.6218 3.4875 37.0999 7.77401 37.0999H25.0275V22.023L20.4157 26.4896C20.1303 26.767 19.7597 26.905 19.39 26.905C19.006 26.905 18.6227 26.7559 18.3343 26.4597C17.7679 25.8776 17.7814 24.9485 18.3651 24.3835L25.4741 17.4969C25.4971 17.4752 25.523 17.46 25.5464 17.44C25.5719 17.4178 25.5969 17.3957 25.6249 17.3752C25.6421 17.3629 25.6573 17.3465 25.6742 17.3343C25.6807 17.3302 25.6873 17.3273 25.6935 17.3232C25.7288 17.2998 25.767 17.2835 25.8044 17.2634C25.852 17.238 25.898 17.2109 25.9486 17.1905C25.9896 17.1741 26.0328 17.1638 26.0747 17.1511C26.1166 17.1388 26.1572 17.1216 26.1987 17.113C26.2069 17.1114 26.2152 17.1114 26.2234 17.1102C26.2653 17.102 26.308 17.1007 26.3507 17.0967C26.3971 17.0921 26.4427 17.0835 26.4891 17.0835C26.4928 17.0835 26.4961 17.0823 26.4998 17.0823C26.5039 17.0823 26.5076 17.0835 26.5117 17.0835C26.5524 17.0835 26.5931 17.0917 26.6337 17.0954C26.6822 17.0999 26.7303 17.102 26.7779 17.1106C26.7857 17.1118 26.7931 17.1122 26.8009 17.1143C26.8391 17.1221 26.8757 17.1376 26.9127 17.1491C26.9599 17.1626 27.0067 17.1737 27.0523 17.1925C27.0996 17.2118 27.1423 17.2372 27.1871 17.2613C27.2269 17.2826 27.2684 17.3007 27.3062 17.3261C27.3119 17.3298 27.3185 17.3326 27.3243 17.3367C27.339 17.3474 27.3526 17.3613 27.3666 17.372C27.3941 17.392 27.4191 17.4141 27.445 17.4359C27.4709 17.458 27.4997 17.4752 27.5251 17.4994L34.6341 24.3859C35.217 24.9509 35.2306 25.88 34.6641 26.4622C34.3757 26.7584 33.9917 26.9075 33.6084 26.9075C33.2387 26.9075 32.8686 26.7703 32.5827 26.4921L27.9721 22.023V37.1H45.2256C49.5121 37.1 53 33.6219 53 29.3469C53 26.9344 51.8946 24.6997 49.9676 23.2149L49.9678 23.215Z" fill="#D9D9D9"/>
</svg>
