<svg width="19" height="19" viewBox="0 0 19 19" fill="none" xmlns="http://www.w3.org/2000/svg">
<path d="M9.04902 0.000274684C6.6491 0.000274684 4.34746 0.953703 2.65048 2.65075C0.953497 4.34781 0 6.64941 0 9.04929C0 11.4492 0.953428 13.7508 2.65048 15.4478C4.34753 17.1448 6.64914 18.0983 9.04902 18.0983C11.4489 18.0983 13.7506 17.1449 15.4476 15.4478C17.1445 13.7508 18.098 11.4492 18.098 9.04929C18.098 7.46089 17.6798 5.9004 16.8856 4.52458C16.0914 3.14876 14.9491 2.00664 13.5735 1.21244C12.1978 0.418237 10.6373 0 9.04874 0L9.04902 0.000274684ZM9.04902 16.9674V16.9675C6.94905 16.9675 4.93499 16.1332 3.45021 14.6483C1.96537 13.1635 1.13106 11.1496 1.13106 9.04953C1.13106 6.94942 1.96537 4.9355 3.45021 3.45072C4.93505 1.96588 6.94891 1.13157 9.04902 1.13157C11.1491 1.13157 13.1631 1.96588 14.6478 3.45072C16.1327 4.93557 16.967 6.94942 16.967 9.04953C16.967 10.4394 16.6011 11.8049 15.9061 13.0084C15.2112 14.2121 14.2116 15.2116 13.0079 15.9066C11.8043 16.6015 10.4389 16.9674 9.04909 16.9674L9.04902 16.9674Z" fill="#D9D9D9"/>
<path d="M12.6456 5.45253C12.5396 5.34724 12.3962 5.28809 12.2468 5.28809C12.0974 5.28809 11.9542 5.34724 11.8482 5.45253L9.04859 8.25214L6.24898 5.45253C6.10345 5.32792 5.90467 5.2854 5.72076 5.33973C5.537 5.39418 5.39321 5.53797 5.33875 5.72174C5.28443 5.90563 5.32695 6.10443 5.45156 6.24996L8.25117 9.04957L5.45156 11.8774C5.34626 11.9833 5.28711 12.1267 5.28711 12.2761C5.28711 12.4256 5.34626 12.5689 5.45156 12.6749C5.55605 12.7814 5.69836 12.8424 5.84751 12.8446C5.99867 12.8439 6.14327 12.7827 6.24895 12.6749L9.04856 9.847L11.8764 12.6466C11.9822 12.7545 12.1268 12.8156 12.2779 12.8163C12.4271 12.8141 12.5694 12.7531 12.6739 12.6466C12.7792 12.5406 12.8383 12.3973 12.8383 12.2478C12.8383 12.0984 12.7792 11.9552 12.6739 11.8492L9.84599 9.0496L12.6456 6.24999C12.7509 6.14403 12.8101 6.00077 12.8101 5.85136C12.8101 5.70195 12.7509 5.55855 12.6456 5.4526L12.6456 5.45253Z" fill="#D9D9D9"/>
</svg>
