<svg width="31" height="31" viewBox="0 0 31 31" fill="none" xmlns="http://www.w3.org/2000/svg">
<path d="M15.0489 0.000456812C11.0578 0.000456812 7.23003 1.58605 4.40787 4.40832C1.58571 7.2306 0 11.0583 0 15.0494C0 19.0405 1.58559 22.8683 4.40787 25.6904C7.23014 28.5126 11.0578 30.0983 15.0489 30.0983C19.04 30.0983 22.8678 28.5127 25.69 25.6904C28.5121 22.8682 30.0979 19.0405 30.0979 15.0494C30.0979 12.4078 29.4023 9.81263 28.0815 7.52458C26.7607 5.23653 24.861 3.33714 22.5733 2.01634C20.2855 0.695546 17.6903 0 15.0485 0L15.0489 0.000456812ZM15.0489 28.2175V28.2177C11.5566 28.2177 8.2071 26.8302 5.73786 24.3608C3.2685 21.8915 1.881 18.5424 1.881 15.0498C1.881 11.5572 3.2685 8.20796 5.73786 5.73871C8.20722 3.26935 11.5563 1.88185 15.0489 1.88185C18.5415 1.88185 21.8908 3.26935 24.36 5.73871C26.8294 8.20807 28.2169 11.5572 28.2169 15.0498C28.2169 17.3612 27.6083 19.632 26.4526 21.6335C25.2969 23.6353 23.6345 25.2976 21.6327 26.4533C19.6311 27.609 17.3603 28.2176 15.049 28.2176L15.0489 28.2175Z" fill="#6C6E76"/>
<path d="M21.0305 9.0678C20.8542 8.89269 20.6158 8.79431 20.3673 8.79431C20.1188 8.79431 19.8806 8.89269 19.7044 9.0678L15.0485 13.7237L10.3926 9.0678C10.1506 8.86057 9.82001 8.78985 9.51415 8.88019C9.20854 8.97076 8.96941 9.20989 8.87885 9.51549C8.78851 9.82132 8.85922 10.1519 9.06645 10.3939L13.7223 15.0498L9.06645 19.7526C8.89134 19.9288 8.79297 20.1673 8.79297 20.4158C8.79297 20.6643 8.89134 20.9027 9.06645 21.0789C9.24023 21.256 9.4769 21.3575 9.72494 21.3611C9.97633 21.36 10.2168 21.2583 10.3926 21.0789L15.0484 16.376L19.7512 21.0319C19.9272 21.2112 20.1677 21.3129 20.419 21.314C20.6671 21.3105 20.9038 21.209 21.0775 21.0319C21.2526 20.8556 21.351 20.6172 21.351 20.3687C21.351 20.1202 21.2526 19.882 21.0775 19.7058L16.3746 15.0499L21.0305 10.394C21.2056 10.2178 21.304 9.97954 21.304 9.73107C21.304 9.48259 21.2056 9.24411 21.0305 9.0679L21.0305 9.0678Z" fill="#6C6E76"/>
</svg>
