<svg width="24" height="21" viewBox="0 0 24 21" fill="none" xmlns="http://www.w3.org/2000/svg">
<path d="M2.53868 9.87125C1.82273 9.38524 0.82212 9.53539 0.304266 10.2066C-0.214146 10.8773 -0.0539886 11.8153 0.661965 12.3008C3.15581 13.9938 5.19594 16.6341 6.8695 20.1162C7.432 21.287 9.20206 21.2969 9.77906 20.1319C13.0408 13.5511 17.7706 7.19003 23.4403 2.63957C24.1116 2.10073 24.1903 1.15378 23.6155 0.524451C23.0407 -0.104902 22.0306 -0.178147 21.3594 0.360698C16.0971 4.58411 11.6434 10.1997 8.30915 16.1521C6.7043 13.5238 4.80588 11.4097 2.53847 9.87063L2.53868 9.87125Z" fill="#5DAF66"/>
</svg>
