<svg width="38" height="38" viewBox="0 0 38 38" fill="none" xmlns="http://www.w3.org/2000/svg">
<path d="M19 0C8.51532 0 0 8.51464 0 19C0 29.4847 8.51532 38 19 38C29.4847 38 38 29.4847 38 19C38 8.51532 29.4854 0 19 0ZM19 1.58336C28.6289 1.58336 36.4161 9.37052 36.4161 18.9995C36.4161 28.6284 28.6289 36.4156 19 36.4156C9.37106 36.4156 1.5839 28.6284 1.5839 18.9995C1.5839 9.37052 9.37106 1.58336 19 1.58336ZM11.8453 11.8495C11.4021 11.8495 11.0845 12.2289 11.0845 12.6723V25.3395C11.0845 26.3529 12.6681 26.3529 12.6681 25.3395V12.6723C12.6681 12.2289 12.2888 11.8495 11.8453 11.8495ZM30.8453 11.8495C30.4021 11.8495 30.0861 12.2289 30.0861 12.6723V25.3395C30.0861 26.4162 31.6697 26.4162 31.6697 25.3395V12.6723C31.6697 12.2289 31.2888 11.8495 30.8453 11.8495ZM19.002 12.6723C18.5585 12.6723 18.1795 13.053 18.1795 13.4965V24.5173C18.1795 25.5941 19.8262 25.5941 19.7628 24.5173V13.4965C19.8262 13.053 19.4455 12.6723 19.002 12.6723ZM14.2517 14.2557C13.8082 14.2557 13.4291 14.5733 13.4291 15.0165V22.9971C13.4925 24.0105 15.0125 24.0105 15.0125 22.9971V15.0165C15.0759 14.5733 14.6952 14.1923 14.2517 14.2557ZM28.5027 14.2557C28.0592 14.2557 27.6785 14.5733 27.7419 15.0165V22.9971C27.7419 24.0105 29.2619 24.0105 29.3253 22.9971V15.0165C29.3253 14.5733 28.9462 14.1923 28.5027 14.2557ZM21.346 15.0165C20.9028 15.0165 20.5852 15.3958 20.5852 15.8393V22.173C20.5852 23.2498 22.1688 23.2498 22.1688 22.173V15.8393C22.1688 15.3958 21.7895 15.0165 21.346 15.0165ZM9.50136 15.8393C9.05787 15.8393 8.6788 16.1566 8.6788 16.5999V21.4138C8.6788 22.4273 10.2622 22.4273 10.2622 21.4138V16.5999C10.3255 16.1566 9.94485 15.7759 9.50136 15.8393ZM23.7524 16.5999C23.3089 16.5999 22.9282 16.9792 22.9916 17.4227V20.5897C22.9916 21.6028 24.5115 21.6028 24.5749 20.5897V17.4227C24.5749 16.9792 24.1959 16.5999 23.7524 16.5999ZM7.09497 17.4227C6.65175 17.4227 6.33417 17.74 6.33417 18.1835V19.8302C6.33417 20.8437 7.9178 20.8437 7.9178 19.8302V18.1835C7.9178 17.74 7.53846 17.3593 7.09497 17.4227ZM16.5325 17.4227C16.1527 17.486 15.8351 17.8033 15.8351 18.2469V19.7668C15.8351 20.8436 17.4187 20.8436 17.4187 19.7668V18.2469C17.4187 17.8034 17.0394 17.4227 16.5959 17.4227H16.5325ZM26.095 17.4227C25.6518 17.4227 25.3357 17.74 25.3357 18.1835V19.8302C25.3357 20.8437 26.9194 20.8437 26.9194 19.8302V18.1835C26.9194 17.74 26.5384 17.4227 26.095 17.4227Z" fill="#094171"/>
</svg>
