<svg width="22" height="19" viewBox="0 0 22 19" fill="none" xmlns="http://www.w3.org/2000/svg">
<path d="M10.9453 0.00234261C10.8325 0.0166422 10.7277 0.0689585 10.6485 0.150918L6.14853 4.65092C6.03796 4.74003 5.97065 4.87187 5.96298 5.01364C5.95531 5.15525 6.00832 5.29353 6.10877 5.39398C6.20904 5.49425 6.34733 5.54726 6.4891 5.53976C6.63088 5.53209 6.76271 5.4646 6.85165 5.35404L10.5002 1.70569V12.5026C10.4983 12.6365 10.5501 12.7655 10.6441 12.8608C10.738 12.9561 10.8662 13.0097 11.0001 13.0097C11.1341 13.0097 11.2623 12.9561 11.3562 12.8608C11.4502 12.7655 11.502 12.6365 11.5001 12.5026V1.70569L15.1486 5.35404C15.2376 5.4646 15.3694 5.53209 15.5112 5.53976C15.653 5.54726 15.7913 5.49425 15.8915 5.39398C15.992 5.29353 16.045 5.15524 16.0373 5.01364C16.0296 4.87187 15.9623 4.74003 15.8518 4.65092L11.3518 0.150918C11.2459 0.0422754 11.0965 -0.0123047 10.9454 0.00234261H10.9453ZM0.445328 12.9948C0.187761 13.023 -0.00547535 13.2434 0.000118405 13.5026V16.3072C0.000118405 17.2391 0.770922 18.0026 1.70315 18.0026H20.2969C21.2292 18.0026 21.9999 17.2391 21.9999 16.3072V13.5026C22.0019 13.3686 21.9501 13.2398 21.8561 13.1444C21.7621 13.049 21.6339 12.9955 21.5 12.9955C21.3662 12.9955 21.2379 13.049 21.1439 13.1444C21.0499 13.2398 20.9981 13.3686 21 13.5026V16.3072C21 16.7008 20.6941 17.0025 20.2969 17.0025H1.70313C1.30588 17.0025 1 16.7008 1 16.3072V13.5026C1.0021 13.3673 0.949257 13.2368 0.853521 13.1411C0.757958 13.0455 0.627516 12.9927 0.49219 12.9948C0.476495 12.9941 0.460975 12.9941 0.445279 12.9948H0.445328Z" fill="white"/>
</svg>
