<svg width="93" height="26" viewBox="0 0 93 26" fill="none" xmlns="http://www.w3.org/2000/svg">
<path d="M9.61133 11.752L8.38086 13.0234C7.36003 12.0299 6.36198 11.5332 5.38672 11.5332C4.76693 11.5332 4.23372 11.7383 3.78711 12.1484C3.34961 12.5586 3.13086 13.0371 3.13086 13.584C3.13086 14.0671 3.31315 14.5273 3.67773 14.9648C4.04232 15.4115 4.80794 15.9355 5.97461 16.5371C7.39648 17.2754 8.36263 17.9863 8.87305 18.6699C9.37435 19.3626 9.625 20.1419 9.625 21.0078C9.625 22.2292 9.19661 23.2637 8.33984 24.1113C7.48307 24.959 6.41211 25.3828 5.12695 25.3828C4.27018 25.3828 3.44987 25.196 2.66602 24.8223C1.89128 24.4486 1.2487 23.9336 0.738281 23.2773L1.94141 21.9102C2.91667 23.013 3.95117 23.5645 5.04492 23.5645C5.81055 23.5645 6.46224 23.3184 7 22.8262C7.53776 22.334 7.80664 21.7552 7.80664 21.0898C7.80664 20.543 7.62891 20.0553 7.27344 19.627C6.91797 19.2077 6.11589 18.679 4.86719 18.041C3.52734 17.3483 2.61589 16.6647 2.13281 15.9902C1.64974 15.3158 1.4082 14.5456 1.4082 13.6797C1.4082 12.5495 1.79102 11.6107 2.55664 10.8633C3.33138 10.1159 4.30664 9.74219 5.48242 9.74219C6.84961 9.74219 8.22591 10.4121 9.61133 11.752ZM27.4531 13.2148L25.9355 14.1582C24.623 12.4173 22.832 11.5469 20.5625 11.5469C18.7487 11.5469 17.2402 12.1302 16.0371 13.2969C14.8431 14.4635 14.2461 15.8809 14.2461 17.5488C14.2461 18.6335 14.5195 19.6543 15.0664 20.6113C15.6224 21.5684 16.3789 22.3112 17.3359 22.8398C18.3021 23.3685 19.3822 23.6328 20.5762 23.6328C22.7637 23.6328 24.5501 22.7624 25.9355 21.0215L27.4531 22.0195C26.7422 23.0859 25.7852 23.9154 24.582 24.5078C23.388 25.0911 22.0254 25.3828 20.4941 25.3828C18.1426 25.3828 16.1921 24.6354 14.6426 23.1406C13.0931 21.6458 12.3184 19.8275 12.3184 17.6855C12.3184 16.2454 12.6784 14.9102 13.3984 13.6797C14.1276 12.4401 15.1257 11.474 16.3926 10.7812C17.6595 10.0885 19.0768 9.74219 20.6445 9.74219C21.6289 9.74219 22.5768 9.89258 23.4883 10.1934C24.4089 10.4941 25.1882 10.8861 25.8262 11.3691C26.4642 11.8522 27.0065 12.4674 27.4531 13.2148ZM30.4199 10.125H32.375V12.2988C32.9583 11.4421 33.5736 10.804 34.2207 10.3848C34.8678 9.95638 35.5423 9.74219 36.2441 9.74219C36.7728 9.74219 37.3379 9.91081 37.9395 10.248L36.9414 11.8613C36.5404 11.6882 36.2031 11.6016 35.9297 11.6016C35.2917 11.6016 34.6764 11.8659 34.084 12.3945C33.4915 12.9141 33.0404 13.7253 32.7305 14.8281C32.4935 15.6758 32.375 17.3893 32.375 19.9688V25H30.4199V10.125ZM61.4707 25V4.38281H63.3711V12.6816C64.1732 11.6973 65.071 10.9635 66.0645 10.4805C67.0579 9.98828 68.1471 9.74219 69.332 9.74219C71.4375 9.74219 73.2331 10.5078 74.7188 12.0391C76.2135 13.5612 76.9609 15.4115 76.9609 17.5898C76.9609 19.7409 76.209 21.5775 74.7051 23.0996C73.2012 24.6217 71.3919 25.3828 69.2773 25.3828C68.0651 25.3828 66.9668 25.123 65.9824 24.6035C64.998 24.084 64.1276 23.3047 63.3711 22.2656V25H61.4707ZM69.127 23.5371C70.1934 23.5371 71.1777 23.2773 72.0801 22.7578C72.9824 22.2292 73.6979 21.4909 74.2266 20.543C74.7643 19.5951 75.0332 18.5924 75.0332 17.5352C75.0332 16.4779 74.7643 15.4707 74.2266 14.5137C73.6888 13.5566 72.9642 12.8138 72.0527 12.2852C71.1504 11.7474 70.1842 11.4785 69.1543 11.4785C68.1061 11.4785 67.1081 11.7474 66.1602 12.2852C65.2214 12.8138 64.4967 13.5293 63.9863 14.4316C63.485 15.334 63.2344 16.3503 63.2344 17.4805C63.2344 19.2031 63.7995 20.6432 64.9297 21.8008C66.069 22.9583 67.4681 23.5371 69.127 23.5371ZM81.1309 4C81.5684 4 81.9421 4.15495 82.252 4.46484C82.5618 4.77474 82.7168 5.14844 82.7168 5.58594C82.7168 6.01432 82.5618 6.38346 82.252 6.69336C81.9421 7.00326 81.5684 7.1582 81.1309 7.1582C80.7025 7.1582 80.3333 7.00326 80.0234 6.69336C79.7135 6.38346 79.5586 6.01432 79.5586 5.58594C79.5586 5.14844 79.7135 4.77474 80.0234 4.46484C80.3333 4.15495 80.7025 4 81.1309 4ZM80.1738 10.125H82.1016V25H80.1738V10.125ZM87.7344 4.60156H89.6621V10.125H92.6973V11.7656H89.6621V25H87.7344V11.7656H85.123V10.125H87.7344V4.60156Z" fill="white"/>
<path d="M40.0566 0.579102H44.7217V16.3838C44.7217 17.7451 44.8379 18.708 45.0703 19.2725C45.3138 19.8369 45.7067 20.2907 46.249 20.6338C46.8024 20.9658 47.4665 21.1318 48.2412 21.1318C49.0602 21.1318 49.763 20.9437 50.3496 20.5674C50.9473 20.1911 51.3568 19.7152 51.5781 19.1396C51.8105 18.5531 51.9268 17.4408 51.9268 15.8027V0.579102H56.5918V15.1387C56.5918 17.5957 56.4535 19.3001 56.1768 20.252C55.9001 21.2038 55.3688 22.1224 54.583 23.0078C53.8083 23.8932 52.9118 24.5518 51.8936 24.9834C50.8753 25.404 49.6911 25.6143 48.3408 25.6143C46.57 25.6143 45.026 25.2103 43.709 24.4023C42.403 23.5833 41.4678 22.5651 40.9033 21.3477C40.3389 20.1191 40.0566 18.0495 40.0566 15.1387V0.579102Z" fill="#0094FF"/>
</svg>
