<svg width="35" height="35" viewBox="0 0 35 35" fill="none" xmlns="http://www.w3.org/2000/svg">
<path d="M20.1344 23.2033L20.2121 23.13L20.1338 23.0573L14.1986 17.5405L19.9983 11.9394L20.0762 11.8641L19.9949 11.7924L19.3118 11.1906L19.2424 11.1295L19.1761 11.1939L12.6628 17.5132L12.5867 17.587L12.6648 17.6587L19.3601 23.806L19.4286 23.8689L19.4963 23.805L20.1344 23.2033Z" fill="#094171" stroke="#094171" stroke-width="0.2"/>
<path d="M17.5 34.1C26.6514 34.1 34.1 26.6514 34.1 17.5C34.1 8.34862 26.6514 0.9 17.5 0.9C8.34862 0.9 0.9 8.34862 0.9 17.5C0.9 26.6514 8.34862 34.1 17.5 34.1ZM17.5 1.94615C26.0755 1.94615 33.0538 8.92453 33.0538 17.5C33.0538 26.0755 26.0755 33.0538 17.5 33.0538C8.92453 33.0538 1.94615 26.0755 1.94615 17.5C1.94615 8.92453 8.92453 1.94615 17.5 1.94615Z" fill="#094171" stroke="#094171" stroke-width="0.2"/>
</svg>
