<svg width="25" height="25" viewBox="0 0 25 25" fill="none" xmlns="http://www.w3.org/2000/svg">
<path d="M15.9723 19.4452C15.5889 19.4452 15.278 19.7561 15.278 20.1395V23.6117L1.38837 23.6119V1.38884H15.278V4.8613C15.278 5.24472 15.5889 5.5556 15.9723 5.5556C16.356 5.5556 16.6669 5.24472 16.6669 4.8613V0.694539C16.6669 0.51038 16.5936 0.333668 16.4634 0.203457C16.3332 0.0732456 16.1565 0 15.9723 0H0.694542C0.310883 0 0 0.310882 0 0.694539V24.3058C0 24.4899 0.073246 24.6666 0.203458 24.7969C0.33367 24.9271 0.510383 25.0003 0.694542 25.0003H15.9723C16.1565 25.0003 16.3332 24.9271 16.4634 24.7969C16.5936 24.6666 16.6669 24.4899 16.6669 24.3058V20.139C16.6669 19.9549 16.5936 19.7784 16.4634 19.6479C16.3332 19.5177 16.1565 19.4447 15.9723 19.4447V19.4452Z" fill="white"/>
<path d="M24.7534 11.9659L20.6628 8.49408C20.5236 8.3762 20.3441 8.31947 20.1638 8.33645C19.9835 8.35342 19.8173 8.44246 19.7016 8.58429C19.4605 8.87955 19.5002 9.31803 19.7901 9.5633L22.4354 11.8062H10.6818C10.3054 11.8062 10 12.1173 10 12.5006C10 12.884 10.3054 13.1951 10.6818 13.1951H22.4354L19.7901 15.438C19.6507 15.5556 19.563 15.7251 19.5463 15.9088C19.5297 16.0924 19.5856 16.2752 19.7016 16.417C19.8312 16.5756 20.0236 16.6672 20.2264 16.6669C20.3857 16.6672 20.54 16.6107 20.6628 16.5072L24.7534 13.0354C24.9098 12.9033 25.0002 12.7074 25.0002 12.5007C25.0002 12.294 24.9098 12.098 24.7534 11.9659L24.7534 11.9659Z" fill="white"/>
</svg>
